<svg version="1.1" preserveAspectRatio="none" xmlns="http://www.w3.org/2000/svg" width="500" height="500" viewBox="0 0 500 500"><rect width="100%" height="100%" fill="#FFFFFF" fill-opacity="1"/><svg viewBox="675.3926 578.1229 533.958 134" width="333" height="83.56837054599801" x="83.5px" y="208.2158px" xmlns="http://www.w3.org/2000/svg" xmlns:xlink="http://www.w3.org/1999/xlink" preserveAspectRatio="none"><defs></defs><style>.background {fill:#FFFFFF;fill-opacity:1;}.icon1 {fill:#0000FF;fill-opacity:1;}.icon1-str {stroke:#0000FF;stroke-opacity:1;}.icon2 {fill:#A9FF94;fill-opacity:1;}.icon3 {fill:#7AE061;fill-opacity:0.95;}.icon3-str {stroke:#7AE061;stroke-opacity:0.95;}.icon4 {fill:#64CC4B;fill-opacity:1;}.icon5 {fill:#9B9BFF;fill-opacity:1;}.icon6 {fill:#E6FFDF;fill-opacity:0.95;}.icon7 {fill:#C6C6FF;fill-opacity:1;}.icon8 {fill:#EFAFAA;fill-opacity:1;}</style><g opacity="1" transform="rotate(0 765.3924 578.1229)">
<svg width="443.9582" height="94" x="765.3924" y="578.1229" version="1.1" preserveAspectRatio="none" viewBox="0 0 443.9582 94">
  <defs><rect x="0" y="0" width="443.9582" height="94" rx="0px" ry="0px" id="id-B7crM0kCi1719422411839"></rect></defs><use class="icon1 icon3-str" style="stroke-width:0;" xlink:href="#id-B7crM0kCi1719422411839"></use>
</svg>
</g><g opacity="1" transform="rotate(0 846.5621 696.1229)">
<svg width="191.6191" height="16" x="846.5621" y="696.1229" version="1.1" preserveAspectRatio="none" viewBox="4.2 -28.32 343 28.64">
  <g transform="matrix(1 0 0 1 0 0)" class="icon1"><path id="id-6izo4zJp12" d="M24.28-28L28.28-28L28.28 0L24.28 0L24.28-12.48L8.20-12.48L8.20 0L4.20 0L4.20-28L8.20-28L8.20-15.96L24.28-15.96L24.28-28Z M59.60 0L56.52-7L41.64-7L38.56 0L34.44 0L47.12-28L51.08-28L63.80 0L59.60 0ZM43.04-10.20L55.12-10.20L49.08-23.92L43.04-10.20Z M93.04 0L88.68 0L82.64-8.60Q81.52-8.52 80.88-8.52L80.88-8.52L73.96-8.52L73.96 0L69.96 0L69.96-28L80.88-28Q86.32-28 89.44-25.40Q92.56-22.80 92.56-18.24L92.56-18.24Q92.56-15 90.96-12.72Q89.36-10.44 86.40-9.40L86.40-9.40L93.04 0ZM80.76-11.92Q84.56-11.92 86.56-13.56Q88.56-15.20 88.56-18.24L88.56-18.24Q88.56-21.28 86.56-22.90Q84.56-24.52 80.76-24.52L80.76-24.52L73.96-24.52L73.96-11.92L80.76-11.92Z M101.04 0L101.04-28L105.04-28L105.04 0L101.04 0Z M123.60 0.32Q120.44 0.32 117.50-0.66Q114.56-1.64 112.88-3.20L112.88-3.20L114.36-6.32Q115.96-4.88 118.46-3.98Q120.96-3.08 123.60-3.08L123.60-3.08Q127.08-3.08 128.80-4.26Q130.52-5.44 130.52-7.40L130.52-7.40Q130.52-8.84 129.58-9.74Q128.64-10.64 127.26-11.12Q125.88-11.60 123.36-12.20L123.36-12.20Q120.20-12.96 118.26-13.72Q116.32-14.48 114.94-16.06Q113.56-17.64 113.56-20.32L113.56-20.32Q113.56-22.56 114.74-24.36Q115.92-26.16 118.32-27.24Q120.72-28.32 124.28-28.32L124.28-28.32Q126.76-28.32 129.16-27.68Q131.56-27.04 133.28-25.84L133.28-25.84L131.96-22.64Q130.20-23.76 128.20-24.34Q126.20-24.92 124.28-24.92L124.28-24.92Q120.88-24.92 119.18-23.68Q117.48-22.44 117.48-20.48L117.48-20.48Q117.48-19.04 118.44-18.14Q119.40-17.24 120.82-16.74Q122.24-16.24 124.68-15.68L124.68-15.68Q127.84-14.92 129.76-14.16Q131.68-13.40 133.06-11.84Q134.44-10.28 134.44-7.64L134.44-7.64Q134.44-5.44 133.24-3.62Q132.04-1.80 129.60-0.74Q127.16 0.32 123.60 0.32L123.60 0.32Z M175.96 0L172.88-7L158-7L154.92 0L150.80 0L163.48-28L167.44-28L180.16 0L175.96 0ZM159.40-10.20L171.48-10.20L165.44-23.92L159.40-10.20Z M186.32 0L186.32-28L198.12-28Q202.56-28 206-26.24Q209.44-24.48 211.34-21.30Q213.24-18.12 213.24-14L213.24-14Q213.24-9.88 211.34-6.70Q209.44-3.52 206-1.76Q202.56 0 198.12 0L198.12 0L186.32 0ZM190.32-3.48L197.88-3.48Q201.28-3.48 203.86-4.80Q206.44-6.12 207.84-8.50Q209.24-10.88 209.24-14L209.24-14Q209.24-17.12 207.84-19.50Q206.44-21.88 203.86-23.20Q201.28-24.52 197.88-24.52L197.88-24.52L190.32-24.52L190.32-3.48Z M232.96 0.32Q227.36 0.32 224.24-2.88Q221.12-6.08 221.12-12.08L221.12-12.08L221.12-28L225.12-28L225.12-12.24Q225.12-3.24 233-3.24L233-3.24Q236.84-3.24 238.88-5.46Q240.92-7.68 240.92-12.24L240.92-12.24L240.92-28L244.80-28L244.80-12.08Q244.80-6.04 241.68-2.86Q238.56 0.32 232.96 0.32L232.96 0.32Z M275.08-28L279.08-28L279.08 0L275.08 0L275.08-12.48L259-12.48L259 0L255 0L255-28L259-28L259-15.96L275.08-15.96L275.08-28Z M301.08 0.32Q295.48 0.32 292.36-2.88Q289.24-6.08 289.24-12.08L289.24-12.08L289.24-28L293.24-28L293.24-12.24Q293.24-3.24 301.12-3.24L301.12-3.24Q304.96-3.24 307-5.46Q309.04-7.68 309.04-12.24L309.04-12.24L309.04-28L312.92-28L312.92-12.08Q312.92-6.04 309.80-2.86Q306.68 0.32 301.08 0.32L301.08 0.32Z M341.96-14.52Q344.40-13.84 345.80-12.06Q347.20-10.28 347.20-7.56L347.20-7.56Q347.20-3.92 344.46-1.96Q341.72 0 336.48 0L336.48 0L323.12 0L323.12-28L335.68-28Q340.48-28 343.10-26.08Q345.72-24.16 345.72-20.76L345.72-20.76Q345.72-18.56 344.70-16.96Q343.68-15.36 341.96-14.52L341.96-14.52ZM335.32-24.76L327.12-24.76L327.12-15.80L335.32-15.80Q338.40-15.80 340.06-16.94Q341.72-18.08 341.72-20.28L341.72-20.28Q341.72-22.48 340.06-23.62Q338.40-24.76 335.32-24.76L335.32-24.76ZM336.32-3.24Q339.72-3.24 341.44-4.36Q343.16-5.48 343.16-7.88L343.16-7.88Q343.16-12.56 336.32-12.56L336.32-12.56L327.12-12.56L327.12-3.24L336.32-3.24Z"/></g>
</svg>
</g><g opacity="1" transform="rotate(0 795.3924 608.1229)">
<svg width="383.9582" height="34" x="795.3924" y="608.1229" version="1.1" preserveAspectRatio="none" viewBox="3.32 -28.48 327.04 28.96">
  <g transform="matrix(1 0 0 1 0 0)" class="background"><path id="id-D6z1nYkh12" d="M22.52-28L29-28L29 0L22.52 0L22.52-11.48L9.80-11.48L9.80 0L3.32 0L3.32-28L9.80-28L9.80-16.96L22.52-16.96L22.52-28Z M56.56 0L54.08-6L41.08-6L38.60 0L31.96 0L44.44-28L50.84-28L63.36 0L56.56 0ZM43.16-10.92L52.04-10.92L47.60-21.64L43.16-10.92Z M91.08 0L84.12 0L78.72-7.80L78.40-7.80L72.76-7.80L72.76 0L66.28 0L66.28-28L78.40-28Q82.12-28 84.86-26.76Q87.60-25.52 89.08-23.24Q90.56-20.96 90.56-17.84L90.56-17.84Q90.56-14.72 89.06-12.46Q87.56-10.20 84.80-9L84.80-9L91.08 0ZM84-17.84Q84-20.20 82.48-21.46Q80.96-22.72 78.04-22.72L78.04-22.72L72.76-22.72L72.76-12.96L78.04-12.96Q80.96-12.96 82.48-14.24Q84-15.52 84-17.84L84-17.84Z M95.68 0L95.68-28L102.16-28L102.16 0L95.68 0Z M118 0.48Q114.68 0.48 111.58-0.42Q108.48-1.32 106.60-2.76L106.60-2.76L108.80-7.64Q110.60-6.32 113.08-5.52Q115.56-4.72 118.04-4.72L118.04-4.72Q120.80-4.72 122.12-5.54Q123.44-6.36 123.44-7.72L123.44-7.72Q123.44-8.72 122.66-9.38Q121.88-10.04 120.66-10.44Q119.44-10.84 117.36-11.32L117.36-11.32Q114.16-12.08 112.12-12.84Q110.08-13.60 108.62-15.28Q107.16-16.96 107.16-19.76L107.16-19.76Q107.16-22.20 108.48-24.18Q109.80-26.16 112.46-27.32Q115.12-28.48 118.96-28.48L118.96-28.48Q121.64-28.48 124.20-27.84Q126.76-27.20 128.68-26L128.68-26L126.68-21.08Q122.80-23.28 118.92-23.28L118.92-23.28Q116.20-23.28 114.90-22.40Q113.60-21.52 113.60-20.08L113.60-20.08Q113.60-18.64 115.10-17.94Q116.60-17.24 119.68-16.56L119.68-16.56Q122.88-15.80 124.92-15.04Q126.96-14.28 128.42-12.64Q129.88-11 129.88-8.20L129.88-8.20Q129.88-5.80 128.54-3.82Q127.20-1.84 124.52-0.68Q121.84 0.48 118 0.48L118 0.48Z M166.56 0L164.08-6L151.08-6L148.60 0L141.96 0L154.44-28L160.84-28L173.36 0L166.56 0ZM153.16-10.92L162.04-10.92L157.60-21.64L153.16-10.92Z M176.28 0L176.28-28L189.00-28Q193.56-28 197.06-26.26Q200.56-24.52 202.50-21.36Q204.44-18.20 204.44-14L204.44-14Q204.44-9.80 202.50-6.64Q200.56-3.48 197.06-1.74Q193.56 0 189.00 0L189.00 0L176.28 0ZM182.76-5.32L188.68-5.32Q192.88-5.32 195.38-7.66Q197.88-10 197.88-14L197.88-14Q197.88-18 195.38-20.34Q192.88-22.68 188.68-22.68L188.68-22.68L182.76-22.68L182.76-5.32Z M221.76 0.48Q215.76 0.48 212.42-2.84Q209.08-6.16 209.08-12.32L209.08-12.32L209.08-28L215.56-28L215.56-12.56Q215.56-5.04 221.80-5.04L221.80-5.04Q224.84-5.04 226.44-6.86Q228.04-8.68 228.04-12.56L228.04-12.56L228.04-28L234.44-28L234.44-12.32Q234.44-6.16 231.10-2.84Q227.76 0.48 221.76 0.48L221.76 0.48Z M260.04-28L266.52-28L266.52 0L260.04 0L260.04-11.48L247.32-11.48L247.32 0L240.84 0L240.84-28L247.32-28L247.32-16.96L260.04-16.96L260.04-28Z M285.60 0.48Q279.60 0.48 276.26-2.84Q272.92-6.16 272.92-12.32L272.92-12.32L272.92-28L279.40-28L279.40-12.56Q279.40-5.04 285.64-5.04L285.64-5.04Q288.68-5.04 290.28-6.86Q291.88-8.68 291.88-12.56L291.88-12.56L291.88-28L298.28-28L298.28-12.32Q298.28-6.16 294.94-2.84Q291.60 0.48 285.60 0.48L285.60 0.48Z M325.24-14.56Q327.64-13.80 329.00-12.02Q330.36-10.24 330.36-7.64L330.36-7.64Q330.36-3.96 327.50-1.98Q324.64 0 319.16 0L319.16 0L304.68 0L304.68-28L318.36-28Q323.48-28 326.22-26.04Q328.96-24.08 328.96-20.72L328.96-20.72Q328.96-18.68 327.98-17.08Q327.00-15.48 325.24-14.56L325.24-14.56ZM317.56-23.12L311.12-23.12L311.12-16.52L317.56-16.52Q319.96-16.52 321.20-17.36Q322.44-18.20 322.44-19.84L322.44-19.84Q322.44-21.48 321.20-22.30Q319.96-23.12 317.56-23.12L317.56-23.12ZM318.68-4.88Q321.24-4.88 322.54-5.72Q323.84-6.56 323.84-8.32L323.84-8.32Q323.84-11.80 318.68-11.80L318.68-11.80L311.12-11.80L311.12-4.88L318.68-4.88Z"/></g>
</svg>
</g><g opacity="1" transform="rotate(0 675.3926 578.1229)">
<svg width="93.9998" height="94" x="675.3926" y="578.1229" version="1.1" preserveAspectRatio="none" viewBox="0 0 93.9998 94">
  <defs><rect x="1.879996" y="1.879996" width="90.239808" height="90.240008" rx="0px" ry="0px" id="id-tBXipXk0b1719422411840"></rect></defs><use class="background icon1-str" style="stroke-width:3.759992;" xlink:href="#id-tBXipXk0b1719422411840"></use>
</svg>
</g><g opacity="1" transform="rotate(0 695.3926 604.5355)">
<svg width="53.9998" height="41.1748" x="695.3926" y="604.5355" version="1.1" preserveAspectRatio="none" viewBox="20 38.99917984008789 160.001708984375 122.00082397460938">
  <g transform="matrix(1 0 0 1 0 0)"><g><path d="M179.217 127.797c.012-.006.026-.004.038-.011a.605.605 0 0 0 .194-.834 10.882 10.882 0 0 0-.838-1.155 48.746 48.746 0 0 0-.701-3.104c-.404-1.564-1.263-2.523-2.425-3.633a1.143 1.143 0 0 0-.443-.274c.503-1.033.861-1.856.999-2.35 1.011-3.633 2.223-7.367 0-13.523s-8.792-12.11-11.622-14.128c-2.83-2.018-3.133.202-8.691-2.422-5.558-2.624-22.133-14.835-27.893-19.376-3.24-2.554-5.521-3.48-6.897-3.802l.665-.941c-.809-2.826-2.021-.942-2.021-.942L95.639 95.371c-1.978-.713-3.885-1.343-5.502-2.054-4.244-9.158 1.685-26.365-4.4-40.627C79.652 38.428 70.28 40.58 70.28 40.58s-5.003-3.633-12.414 2.422S47.355 64.8 46.008 73.276c-1.348 8.477-3.638 18.434-5.66 21.529-1.357 2.078-3.259 4.287-4.772 8.332-7.124 6.626-12.919 31.6-14.363 33.582-.994 1.365-.842 2.271-.577 2.767a.596.596 0 0 0-.231.489.594.594 0 0 0 .494.554L20 145.197h2.425c-4.649 13.119-.404 15.303-.404 15.303h12.734a58.787 58.787 0 0 0 4.381-1.916c.446 1.148.672 1.916.672 1.916h58.616c-.404-2.256-2.628-8.037-2.426-14.294.156-4.824-.528-12.521-.016-15.056.056.017.112.035.174.035h.001a.606.606 0 0 0 .605-.607v-.147c.016.012.029.018.045.032 1.819 1.615.809 7.67 2.628 8.88.256.17.448.362.603.565a.595.595 0 0 0 .02.547c.094.16.253.244.422.274.41 1.08.466 2.239 2.39 2.65.697.149 2.021-.254 3.636-.957 1.471 2.03 6.69 9.133 8.593 10.342 2.223 1.413 5.963.706 12.633-1.009 6.67-1.716 21.729-9.89 29.713-13.422.066-.029.123-.06.187-.089 3.003 1.607 4.866 2.612 4.866 2.612l.534-.89c1.832.729 5.566 2.142 6.844 2.081.097-.005.204-.063.318-.157h.005c1.182-.379 3.466-3.406 4.578-4.213 1.112-.807 2.83-3.482 3.032-4.44.202-.959 1.516-1.312 2.072-2.725.374-.949-.21-1.919-.664-2.715zm-7.449-2.853c.703.487 1.486.837 2.15 1.613l.001.001c-.1.107-.201.229-.304.373-.2.28-.408.509-.622.698-.713-.409-1.434-.643-2.14-1.056.31-.549.616-1.094.915-1.629zm-40.801 12.381c-3.335.303-10.408.706-10.408.706l-1.722-2.541a93.087 93.087 0 0 0 1.224-.789c1.106-.732.038-1.964-.022-3.992l.218-.08a.6.6 0 0 0-.239-1.165c-.366-2.189-3.619-4.346-6.029-9.9-.618-1.424-1.078-2.917-1.507-4.441l6.358 3.028c7.305 3.484 19.426 9.813 29.048 14.907-6.431 1.878-14.644 4.061-16.921 4.267z"></path><path d="M98.424 161H39.808s-3.234-11.156-9.702-12.377-7.681-3.052-7.681-3.052H20l1.011-5.291s-1.415-1.017.202-3.256c1.617-2.238 8.691-33.577 16.978-35.409 8.287-1.832 9.5-2.646 11.117-7.53 1.617-4.884.606-7.937 15.563-9.157 14.957-1.221 19.202-.611 20.819 4.477 1.617 5.088 12.936 5.088 19.404 10.989 6.468 5.901 6.266 13.227 8.893 19.333 2.628 6.105 6.266 8.14 6.064 10.582-.202 2.442 1.229 3.867.008 4.681-1.221.814-14.359 9.361-17.189 8.75-2.83-.611-1.617-2.849-3.436-4.07s-.809-7.326-2.628-8.954c-1.819-1.628-.606 9.564-.809 15.873-.2 6.307 2.023 12.136 2.427 14.411z" data-color="1" class="icon1"></path><path d="m106.105 142.213 12.731-6.429 1.722 2.562s7.073-.407 10.408-.712c3.335-.305 19.404-4.884 23.952-6.512 4.548-1.628 10.51 3.968 2.527 7.529-7.984 3.561-23.042 11.803-29.713 13.533-6.67 1.73-10.409 2.442-12.633 1.018-2.223-1.425-8.994-10.989-8.994-10.989z" data-color="2" class="icon2"></path><path d="M161.993 139.872s6.165 2.607 7.883 2.524c1.718-.082 6.367-15.243 6.367-15.243s-1.112-2.137-2.628 0-3.436 1.526-5.862 0c-2.425-1.526-5.76 12.719-5.76 12.719z" data-color="2" class="icon2"></path><path d="M161.993 139.872s6.165 2.607 7.883 2.524c1.718-.082 6.367-15.243 6.367-15.243s-1.112-2.137-2.628 0-3.436 1.526-5.862 0c-2.425-1.526-5.76 12.719-5.76 12.719z" opacity=".15"></path><path d="M46.007 122.695c.254 2.444-2.021 3.136-4.178 1.236-2.156-1.899-3.907-8.275-3.907-8.275s-.27 5.291.809 8.411c1.078 3.12-6.333-3.98-4.986-13.386 1.348-9.405 4.582-12.797 6.603-15.918 2.021-3.121 4.312-13.16 5.66-21.707 1.347-8.547 4.447-24.42 11.858-30.525 7.411-6.105 12.414-2.442 12.414-2.442s9.372-2.171 15.457 12.21c6.085 14.381.156 31.73 4.401 40.964 4.245 9.233 8.288 21.036 5.997 27.751-2.291 6.715-8.085 6.308-8.085 6.308l1.213-5.291s-3.1 3.848-6.603 4.205c-3.503.357-5.69-.741-2.56-6.919 3.13-6.178-2.425-5.562-2.291-3.256.135 2.306-4.043-.407-4.043-11.667s.405-11.803-1.482-12.481c-1.887-.678-14.553.542-16.709 2.306-2.156 1.764-6.468 4.206-6.872 10.311-.404 6.105-2.695 10.853-2.83 12.888-.136 2.036-.136 2.684.134 5.277z" data-color="3" class="icon3"></path><path d="M64.063 101.953s-8.893-4.205-8.489-7.733c.404-3.527 1.213-8.547-1.482-12.481-2.695-3.935-3.504-8.683-2.56-13.567.943-4.884 2.965-6.105 2.965-6.105s-1.078-3.799 2.156-4.07c3.234-.271 3.908-.543 3.908-.543s2.829-7.597 5.928-10.717c3.099-3.12 4.447 13.625 4.447 13.625s.943-5.756-.656-14.054c-.228-1.183 2.408.293 2.947 7.077l.539 6.784 5.39 2.55s.808-2.198 1.482 0c.674 2.198 1.887 3.826 1.887 6.132s-1.887 5.969-2.56 8.954c-.674 2.985-4.582 7.191-5.795 7.733-1.213.543.486 4.022-.632 7.505-1.119 3.484-4.623 4.162-5.836 5.383s-3.639 3.527-3.639 3.527z" data-color="2" class="icon2"></path><path d="M65.071 78.208c-2.479-.47-4.233-2.177-5.206-3.4L58.77 74.6s2.115 3.949 6.096 4.704c3.982.755 7.378-2.15 7.378-2.15l-1.096-.207c-1.347.782-3.598 1.73-6.077 1.261z" data-color="3" class="icon3"></path><path d="M65.071 78.208c2.479.47 4.73-.479 6.076-1.261l-11.282-2.138c.973 1.221 2.727 2.929 5.206 3.399z" data-color="4" class="icon4"></path><path d="M76.084 64.442c0 .975-.556 1.766-1.241 1.766s-1.241-.791-1.241-1.766.556-1.766 1.241-1.766c.686 0 1.241.791 1.241 1.766z" data-color="3" class="icon3"></path><path d="M61.666 62.128c0 .975-.556 1.766-1.241 1.766s-1.241-.791-1.241-1.766.556-1.766 1.241-1.766c.686 0 1.241.791 1.241 1.766z" data-color="3" class="icon3"></path><path d="M158.119 111.179c-5.12-3.663-14.149-6.241-26.411-12.617-12.263-6.377-26.693-15.299-26.693-15.299l-14.878 21.302s15.159 7.224 28.702 13.736 43.659 22.894 43.659 22.894 6.217-10.399 10.246-17.827c-1.544-6.534-9.505-8.526-14.625-12.189z" data-color="4" class="icon4"></path><path d="M176.041 102.937c-2.223-6.207-8.792-12.21-11.622-14.245-2.83-2.035-3.133.204-8.691-2.442-5.558-2.646-22.133-14.957-27.893-19.536-5.761-4.579-8.489-3.968-8.489-3.968l-14.33 20.517s14.431 8.922 26.693 15.299c12.262 6.376 21.291 8.954 26.411 12.617 5.12 3.663 13.081 5.655 14.626 12.189 1.691-3.118 2.997-5.713 3.296-6.796 1.009-3.663 2.222-7.428-.001-13.635z" data-color="5" class="icon5"></path><path d="M121.602 61.932 52.205 161h-2.333L119.58 60.982s1.213-1.899 2.022.95z" data-color="3" class="icon3"></path><path d="M34.755 161H22.021s-4.245-2.202.404-15.43c0 0 3.032.407 6.064 0s5.457 1.018 12.936-2.442c7.479-3.459 13.947-6.715 15.968-10.378 2.021-3.663 2.425-6.715 5.861-6.919 3.436-.204 8.792-.814 9.5-.916.707-.102 4.245.203 5.558.916 1.314.712 1.819 2.646 0 2.849-1.819.204-5.255.204-5.255.204s2.526 2.646 2.425 4.172c-.101 1.526-2.526 1.628-2.526 1.628s.202 2.645-1.819 3.459c0 0 .202 2.442-2.122 3.256-2.324.814-3.638 1.628-4.446 2.34-.809.712-4.447 3.358-5.963 3.561-1.516.204-12.532 9.289-23.851 13.7z" data-color="2" class="icon2"></path><path d="M169.118 139.364s.758-2.238.96-3.052c.202-.814-1.508-3.953-2.068-4.52-.56-.567-.994-2.457 1.042-1.817 2.036.64 3.855 2.166 1.986.385-1.87-1.781-3.436-2.747-3.133-3.765.303-1.018 1.516-.763 2.628 0s2.274.916 3.386 1.933 1.061-.501 0-1.752c-1.061-1.25-2.425-1.403-3.284-2.776-.859-1.374.606-2.798 1.769-2.137 1.162.661.96-.102.758-.865-.202-.763 1.162-2.9 2.325-1.781 1.162 1.119 2.021 2.086 2.425 3.663.404 1.577.758 3.256.859 4.121s1.667 2.34 1.112 3.765c-.556 1.425-1.87 1.781-2.072 2.747-.202.967-1.92 3.663-3.032 4.477-1.112.814-3.396 3.866-4.578 4.248-1.184.382-1.493-1.637-1.083-2.874z" data-color="2" class="icon2"></path><path d="M66.315 71.225a.603.603 0 0 1-.207-.037c-.311-.113-3.035-1.163-3.102-3.124-.05-1.475 1.387-2.842 4.396-4.181a.606.606 0 0 1 .8.312.611.611 0 0 1-.309.805c-3.236 1.44-3.691 2.511-3.674 3.021.032.969 1.716 1.803 2.304 2.019a.61.61 0 0 1-.208 1.185z" data-color="3" class="icon3"></path><path d="M66.244 88.201a23.84 23.84 0 0 1-2.7-.157c-7.429-.841-10.596-6.954-10.727-7.214a.612.612 0 0 1 .266-.821.604.604 0 0 1 .815.267c.03.059 3.02 5.789 9.782 6.555 6.861.775 10.08-1.744 10.111-1.769a.603.603 0 0 1 .852.095.614.614 0 0 1-.094.858c-.127.102-2.788 2.186-8.305 2.186z" data-color="3" class="icon3"></path><path d="M66.219 123.978h-4.553a.61.61 0 0 1-.602-.679c.016-.14 1.57-14.059.784-18.803a.612.612 0 0 1 .279-.62c-.356-.088-.754-.165-1.201-.252l-.621-.122a51.543 51.543 0 0 0-1.393-.259c-1.361-.238-1.924-.337-1.824-1.712.015-.209.034-.469.034-.799 0-.553-.065-.805-.107-.909-.208.076-.875.47-2.447 2.505-2.999 3.882-5.872 3.667-5.993 3.657a.61.61 0 0 1-.55-.663c.03-.334.32-.58.653-.554.106.005 2.38.114 4.932-3.19 1.844-2.387 2.952-3.238 3.827-2.936.897.31.897 1.603.897 2.09 0 .374-.022.671-.038.888-.006.087-.013.181-.016.255.173.048.498.105.838.164.369.064.835.146 1.423.265l.612.12c3.297.639 4.496 1.137 5.656 6.591 1.221 5.739.058 14.086.007 14.438a.601.601 0 0 1-.597.525zm-3.876-1.221h3.344c.234-1.929.946-8.76-.06-13.486-.731-3.434-1.362-4.56-2.62-5.111.017.042.03.087.038.134.719 4.351-.393 15.554-.702 18.463z" data-color="6" class="icon6"></path><path d="m64.761 105.484-.056-.002a.61.61 0 0 1-.548-.664c.458-5.005 6.526-7.278 6.784-7.372a.606.606 0 0 1 .467.023l2.455 1.176a.613.613 0 0 1 .287.814.604.604 0 0 1-.808.289l-2.215-1.061c-1.056.446-5.421 2.509-5.762 6.245a.609.609 0 0 1-.604.552z" data-color="6" class="icon6"></path><path d="M37.271 144.426c-.775 0-1.708-.424-2.867-.952-1.301-.592-2.92-1.328-4.812-1.679-5.508-1.024-8.526-.909-8.555-.906a.613.613 0 0 1-.632-.584.607.607 0 0 1 .579-.636c.128-.005 3.166-.127 8.828.925 2.037.379 3.73 1.149 5.091 1.767 1.153.525 2.243 1.021 2.621.782.158-.099.428-.487.465-1.964.069-2.719-.472-5.156-.907-7.114-.441-1.987-.732-3.299-.205-4.097a.694.694 0 0 1 .696-.324c.581.092.773.686 1.352 2.736.214.757.57 2.019.865 2.683.276-.878.695-3.341 1.029-10.198a.612.612 0 0 1 .635-.58.61.61 0 0 1 .576.64c-.561 11.519-1.382 11.614-2.106 11.697-.564.066-.952-.365-1.32-1.249.339 1.679.652 3.689.597 5.836-.041 1.627-.36 2.542-1.033 2.968a1.617 1.617 0 0 1-.897.249z" data-color="6" class="icon6"></path><path d="M100.583 141.093a.613.613 0 0 1-.306-1.138c.032-.019 3.3-1.938 8.897-5.158 5.641-3.245 10.625-5.047 10.675-5.065a.605.605 0 0 1 .774.371.612.612 0 0 1-.368.78c-.049.018-4.938 1.786-10.48 4.975a1199.414 1199.414 0 0 0-8.887 5.153.605.605 0 0 1-.305.082z" data-color="6" class="icon6"></path><path d="M96.156 131.442a.608.608 0 0 1-.606-.609l-.022-9.817a.609.609 0 0 1 .605-.612h.001c.334 0 .606.272.606.609l.022 9.817a.609.609 0 0 1-.605.612h-.001z" data-color="6" class="icon6"></path><path d="M73.058 129.494a.624.624 0 0 1-.148-.018c-.028-.007-2.878-.703-7.13.01a.61.61 0 0 1-.199-1.204c4.519-.759 7.501-.021 7.626.01a.61.61 0 0 1-.149 1.202z" data-color="3" class="icon3"></path><path d="M72.957 135.294a.605.605 0 0 1-.523-.3c-.004-.006-.186-.31-.493-.614a.599.599 0 0 1-.444.149l-4.784-.356a.61.61 0 0 1-.049-1.212c.104-.016 2.571-.401 3.996-.414 1.743-.002 2.776 1.753 2.819 1.829a.612.612 0 0 1-.522.918z" data-color="3" class="icon3"></path><path d="M66.758 138.753a.611.611 0 0 1-.189-1.191c2.981-.988 4.791.005 4.866.048a.612.612 0 0 1 .231.832.604.604 0 0 1-.822.235c-.07-.038-1.466-.761-3.896.045a.6.6 0 0 1-.19.031z" data-color="3" class="icon3"></path><path d="M174.558 136.684a.61.61 0 0 1-.606-.595c-.06-2.276-2.582-4.423-2.608-4.445a.614.614 0 0 1-.077-.86.603.603 0 0 1 .854-.077c.121.102 2.968 2.529 3.042 5.35a.608.608 0 0 1-.59.626l-.015.001z" data-color="3" class="icon3"></path><path d="M177.294 132.478a.608.608 0 0 1-.547-.345c-.469-.979-2.013-2.356-2.568-2.804a.613.613 0 0 1-.094-.858.602.602 0 0 1 .852-.095c.09.072 2.218 1.797 2.903 3.227a.612.612 0 0 1-.546.875z" data-color="3" class="icon3"></path><path d="M178.935 128.108a.605.605 0 0 1-.515-.288c-1.723-2.787-5.552-5.172-5.591-5.195a.614.614 0 0 1-.2-.84.603.603 0 0 1 .833-.201c.167.103 4.11 2.557 5.987 5.591a.613.613 0 0 1-.194.841.607.607 0 0 1-.32.092z" data-color="3" class="icon3"></path><path d="M63.612 59.015a.606.606 0 0 1-.493-.254c-.03-.039-.99-1.238-3.935-1.238a.608.608 0 0 1-.606-.61c0-.337.271-.61.606-.61 3.672 0 4.876 1.683 4.925 1.754a.614.614 0 0 1-.152.85.604.604 0 0 1-.345.108z" data-color="3" class="icon3"></path></g></g>
</svg>
</g></svg></svg>